<svg xmlns="http://www.w3.org/2000/svg" width="1200" height="630" viewBox="0 0 1200 630">
  <defs>
    <linearGradient id="bg" x1="0%" y1="0%" x2="100%" y2="100%">
      <stop offset="0%" stop-color="#0f172a"/>
      <stop offset="100%" stop-color="#1e1b4b"/>
    </linearGradient>
  </defs>

  <rect width="1200" height="630" fill="url(#bg)"/>
  <ellipse cx="200" cy="200" rx="350" ry="280" fill="#6366f1" fill-opacity="0.08"/>
  <ellipse cx="1050" cy="500" rx="250" ry="200" fill="#6366f1" fill-opacity="0.05"/>
  <rect x="80" y="100" width="4" height="430" rx="2" fill="#6366f1" fill-opacity="0.6"/>

  <text x="116" y="200" font-family="system-ui,-apple-system,sans-serif" font-size="72" font-weight="800" fill="#f8fafc" letter-spacing="-1">Jayvee Celestial</text>
  <text x="116" y="268" font-family="system-ui,-apple-system,sans-serif" font-size="32" font-weight="500" fill="#818cf8">Senior DevOps Engineer · Riyadh, KSA</text>

  <rect x="116" y="300" width="968" height="1" fill="#1e293b"/>

  <text x="116" y="360" font-family="system-ui,-apple-system,sans-serif" font-size="26" fill="#94a3b8">OpenShift &amp; Kubernetes Specialist · AI Engineering in Progress</text>

  <rect x="116" y="400" width="160" height="44" rx="8" fill="#1e293b" stroke="#312e81" stroke-width="1"/>
  <text x="196" y="428" font-family="system-ui,-apple-system,sans-serif" font-size="20" fill="#a5b4fc" text-anchor="middle">OpenShift</text>

  <rect x="288" y="400" width="160" height="44" rx="8" fill="#1e293b" stroke="#312e81" stroke-width="1"/>
  <text x="368" y="428" font-family="system-ui,-apple-system,sans-serif" font-size="20" fill="#a5b4fc" text-anchor="middle">Kubernetes</text>

  <rect x="460" y="400" width="120" height="44" rx="8" fill="#1e293b" stroke="#312e81" stroke-width="1"/>
  <text x="520" y="428" font-family="system-ui,-apple-system,sans-serif" font-size="20" fill="#a5b4fc" text-anchor="middle">Python</text>

  <rect x="592" y="400" width="220" height="44" rx="8" fill="#1e293b" stroke="#312e81" stroke-width="1"/>
  <text x="702" y="428" font-family="system-ui,-apple-system,sans-serif" font-size="20" fill="#a5b4fc" text-anchor="middle">LLM Engineering</text>

  <rect x="824" y="400" width="100" height="44" rx="8" fill="#1e293b" stroke="#312e81" stroke-width="1"/>
  <text x="874" y="428" font-family="system-ui,-apple-system,sans-serif" font-size="20" fill="#a5b4fc" text-anchor="middle">AWS</text>

  <text x="116" y="510" font-family="system-ui,-apple-system,sans-serif" font-size="22" fill="#475569">EX280 · EX432 · EX188 · EX180 · AWS CCP</text>
  <text x="116" y="570" font-family="system-ui,-apple-system,sans-serif" font-size="22" fill="#4f46e5">jayveecelestial.vercel.app</text>

  <rect x="1060" y="100" width="60" height="60" rx="12" fill="#6366f1"/>
  <text x="1090" y="143" font-family="system-ui,-apple-system,sans-serif" font-size="26" font-weight="700" fill="white" text-anchor="middle">JC</text>
</svg>
